# xmcd
#
# Track frame offsets:
#	150
#	21705
#	35537
#	52337
#	67997
#	88027
#	100067
#	113829
#	136857
#	152772
#
# Disc length: 2236 seconds
#
# Revision: 1
# Processed by: cddbd v1.5PL3 Copyright (c) Steve Scherf et al.
# Submitted via: audiograbber 1.83.01
#
DISCID=8708ba0a
DTITLE=Star Hustler - transamber
DYEAR=1900
DGENRE=Country Alt
TTITLE0=same stars
TTITLE1=big deep gap
TTITLE2=dim lights
TTITLE3=shady grove
TTITLE4=c-section
TTITLE5=mission hill blues
TTITLE6=come along
TTITLE7=seven curses
TTITLE8=trouble in friday harbor
TTITLE9=hushed indoors
EXTD=
EXTT0=
EXTT1=
EXTT2=
EXTT3=
EXTT4=
EXTT5=
EXTT6=
EXTT7=
EXTT8=
EXTT9=
PLAYORDER=
